<svg width="32" height="26" viewBox="0 0 32 26" fill="none" xmlns="http://www.w3.org/2000/svg">
<path d="M8.8 14.4C11.005 14.4 12.8 12.605 12.8 10.4C12.8 8.19498 11.005 6.39998 8.8 6.39998C6.595 6.39998 4.8 8.19498 4.8 10.4C4.8 12.605 6.595 14.4 8.8 14.4ZM27.2 6.39998H15.2C14.76 6.39998 14.4 6.75998 14.4 7.19998V16H3.2V2.39998C3.2 1.95798 2.842 1.59998 2.4 1.59998H0.8C0.35815 1.59998 0 1.95798 0 2.39998V23.2C0 23.64 0.35815 24 0.8 24H2.4C2.842 24 3.2 23.64 3.2 23.2V20.8H28.8V23.2C28.8 23.6418 29.1581 24 29.6 24H31.2C31.6418 24 32 23.6418 32 23.2V11.2C32 8.50498 29.85 6.39998 27.2 6.39998Z" fill="#44AB70"/>
</svg>
