<svg width="32" height="32" viewBox="0 0 32 32" fill="none" xmlns="http://www.w3.org/2000/svg">
<path d="M2.47563 12.3L4.675 6.01813C5.51688 3.61125 7.7875 2 10.3375 2H21.6625C24.2125 2 26.4813 3.61125 27.325 6.01813L29.525 12.3C30.975 12.9 32 14.3313 32 16V28C32 29.1063 31.1063 30 30 30H28C26.8937 30 26 29.1063 26 28V25H6V28C6 29.1063 5.10437 30 4 30H2C0.895625 30 0 29.1063 0 28V16C0 14.3313 1.0225 12.9 2.47563 12.3ZM6.81875 12H25.1812L23.55 7.3375C23.2687 6.5375 22.5125 6 21.6625 6H10.3375C9.4875 6 8.73125 6.5375 8.45 7.3375L6.81875 12ZM6 16C4.89563 16 4 16.8938 4 18C4 19.1063 4.89563 20 6 20C7.10625 20 8 19.1063 8 18C8 16.8938 7.10625 16 6 16ZM26 20C27.1063 20 28 19.1063 28 18C28 16.8938 27.1063 16 26 16C24.8937 16 24 16.8938 24 18C24 19.1063 24.8937 20 26 20Z" fill="#44AB70"/>
</svg>
