<svg width="32" height="32" viewBox="0 0 32 32" fill="none" xmlns="http://www.w3.org/2000/svg">
<path d="M17 9C17 8.44772 16.5523 8 16 8C15.4477 8 15 8.44772 15 9H17ZM15 23C15 23.5523 15.4477 24 16 24C16.5523 24 17 23.5523 17 23H15ZM9 15C8.44772 15 8 15.4477 8 16C8 16.5523 8.44772 17 9 17V15ZM23 17C23.5523 17 24 16.5523 24 16C24 15.4477 23.5523 15 23 15V17ZM30 16C30 23.732 23.732 30 16 30V32C24.8366 32 32 24.8366 32 16H30ZM16 30C8.26801 30 2 23.732 2 16H0C0 24.8366 7.16344 32 16 32V30ZM2 16C2 8.26801 8.26801 2 16 2V0C7.16344 0 0 7.16344 0 16H2ZM16 2C23.732 2 30 8.26801 30 16H32C32 7.16344 24.8366 0 16 0V2ZM15 9V23H17V9H15ZM9 17H23V15H9V17Z" fill="#333333"/>
</svg>
