<svg width="32" height="32" viewBox="0 0 32 32" fill="none" xmlns="http://www.w3.org/2000/svg">
<path d="M11.1187 30.8812C9.94999 32.05 8.04999 32.05 6.88124 30.8812L1.12124 25.1187C-0.0503432 23.95 -0.0503432 22.05 1.12124 20.8812L4.29312 17.7062L7.29374 20.7062C7.68124 21.1 8.31874 21.1 8.70624 20.7062C9.09999 20.3187 9.09999 19.6812 8.70624 19.2937L5.70687 16.2937L8.29374 13.7062L11.2937 16.7062C11.6812 17.1 12.3187 17.1 12.7062 16.7062C13.1 16.3187 13.1 15.6812 12.7062 15.2937L9.70624 12.2937L12.2937 9.70624L15.2937 12.7062C15.6812 13.1 16.3187 13.1 16.7062 12.7062C17.1 12.3187 17.1 11.6812 16.7062 11.2937L13.7062 8.29374L16.2937 5.70687L19.2937 8.70624C19.6812 9.09999 20.3187 9.09999 20.7062 8.70624C21.1 8.31874 21.1 7.68124 20.7062 7.29374L17.7062 4.29312L20.8812 1.12125C22.05 -0.0503445 23.95 -0.0503445 25.1187 1.12125L30.8812 6.88125C32.05 8.04999 32.05 9.94999 30.8812 11.1187L11.1187 30.8812Z" fill="#44AB70"/>
</svg>
