<svg width="32" height="32" viewBox="0 0 32 32" fill="none" xmlns="http://www.w3.org/2000/svg">
<path d="M18 24C16.8956 24 16 24.8956 16 26C16 27.1044 16.8956 28 18 28C19.1044 28 20 27.1044 20 26C20 24.8937 19.1063 24 18 24ZM26 16C24.8956 16 24 16.8956 24 18C24 19.1044 24.8956 20 26 20C27.1044 20 28 19.1044 28 18C28 16.8937 27.1063 16 26 16ZM30 12C28.8956 12 28 12.8956 28 14C28 15.1044 28.8956 16 30 16C31.1044 16 32 15.1044 32 14C32 12.8937 31.1063 12 30 12ZM18 20C18 18.8956 17.1044 18 16 18C14.8956 18 14 18.8956 14 20C14 21.1044 14.8956 22 16 22C17.1044 22 18 21.1062 18 20ZM20 14C18.8956 14 18 14.8956 18 16C18 17.1044 18.8956 18 20 18C21.1044 18 22 17.1044 22 16C22 14.8937 21.1063 14 20 14ZM24 14C25.1044 14 26 13.1044 26 12C26 10.8956 25.1044 9.99997 24 9.99997C22.8956 9.99997 22 10.8956 22 12C22 13.1062 22.8937 14 24 14ZM22 20C20.8956 20 20 20.8956 20 22C20 23.1044 20.8956 24 22 24C23.1044 24 24 23.1044 24 22C24 20.8937 23.1063 20 22 20ZM21.7062 5.70685L20.9994 4.99997C20.6089 4.60947 19.9756 4.60947 19.585 4.99997L19.1706 5.41441C16.9737 3.77129 14.0574 3.59191 11.6956 4.86572L10.6562 3.8281C8.2625 1.43435 3.97812 1.1456 1.37375 4.44747C0.439187 5.63185 0 7.14372 0 8.64997V29C0 29.55 0.44775 30 1 30H3C3.5525 30 4 29.55 4 29V8.24372C4 7.00747 5.00562 6.00185 6.2425 6.00185C6.83237 6.00185 7.41062 6.2411 7.82875 6.6581L8.86687 7.69622C7.59375 10.0562 7.76875 12.975 9.4125 15.1687L9 15.5875C8.6095 15.978 8.6095 16.6112 9 17.0019L9.70687 17.7087C10.0974 18.0994 10.7306 18.0994 11.1213 17.7087L21.7087 7.12122C22.1 6.73122 22.1 6.09747 21.7062 5.70685Z" fill="#44AB70"/>
</svg>
